<svg xmlns="http://www.w3.org/2000/svg" width="218.406" height="348.416" viewBox="0 0 218.406 348.416">
    <defs>
        <clipPath id="hitvds0jsa">
            <path data-name="Path 30749" d="M293.334 103.309c5.111 13.693-50.5 45.731-50.577 82.326s24.878 180.634 19.117 195.942c-4.363 11.909-124.682 2.652-132.589 7.232-7.931 4.6-.217-128.973-10.318-128.973s-8.944-2.29-16.754-6.846-14.272-13.669-19.382-27.39q-7.7-20.539-7.57-75.431.108-54.892 8.775-78.059 6.545-17.863 18.442-24.734A52.469 52.469 0 0 1 129.5 40.51c10.1.024 140.5 5.569 148.283 10.2 7.817 4.626 10.417 38.906 15.551 52.599z" transform="translate(-75.259 -40.51)" style="fill:none"/>
        </clipPath>
    </defs>
    <g data-name="Group 16081" style="clip-path:url(#hitvds0jsa)">
        <g data-name="Group 16080">
            <g data-name="Group 16072">
                <g data-name="Group 16065">
                    <path data-name="Path 30705" d="M144.644 69.132h-.265a7.322 7.322 0 0 0-1.278-1.374 32.732 32.732 0 0 1-3.134-3.206 3.186 3.186 0 0 1-.82-2.387 12.425 12.425 0 0 1 1.736-4.363c.338-.6.627-.892.916-.892a.435.435 0 0 1 .289.072 1.575 1.575 0 0 1 .747 1.519 5.344 5.344 0 0 1-.169 1.181 3.443 3.443 0 0 0 .892 3.544 9.9 9.9 0 0 0 .7.723 5.837 5.837 0 0 1 .747.8 4.061 4.061 0 0 1 .844 3.279 1.837 1.837 0 0 1-1.133 1.181l-.1-.072z" transform="translate(14.851 -17.374)" style="fill:#fff"/>
                    <path data-name="Path 30706" d="M156.674 40.138h.048a1.066 1.066 0 0 1 .362.964 3.757 3.757 0 0 1-.169 1.061 4.031 4.031 0 0 0 1.037 4.074c.241.265.482.53.747.771a4.627 4.627 0 0 1 .675.723 3.46 3.46 0 0 1 .747 2.748 1.274 1.274 0 0 1-.53.675c-.41-.41-.844-.8-1.254-1.205a31.681 31.681 0 0 1-3.086-3.158 2.451 2.451 0 0 1-.675-1.929 11.88 11.88 0 0 1 1.639-4.122 1.486 1.486 0 0 1 .434-.579zm0-1.205c-.675 0-1.109.579-1.446 1.205a13.811 13.811 0 0 0-1.808 4.6 3.7 3.7 0 0 0 .94 2.821 61.1 61.1 0 0 0 4.653 4.7.366.366 0 0 0 .241.121.387.387 0 0 0 .265.121h.1c2.483-.844 2.025-3.761.723-5.448-.434-.579-1.012-.988-1.471-1.543-1.615-1.88-.6-2.6-.579-4.339a2.171 2.171 0 0 0-1.133-2.1 1.52 1.52 0 0 0-.53-.121z"/>
                </g>
                <g data-name="Group 16066">
                    <path data-name="Path 30707" d="M149.665 140.4a37.078 37.078 0 0 1-12.005-1.76 18.353 18.353 0 0 1-3.905-1.832 60.05 60.05 0 0 0-6.1-3.375c-3.785-1.929-7.063-3.592-8.654-6.509a38.333 38.333 0 0 1-3.423-8.2c-5.448-8.9-18.828-32.593-16.2-37.294a1.368 1.368 0 0 1 1.35-.675h.265c6.1.506 19.744 8.968 38.427 23.89.41.338.7.554.771.627a22.618 22.618 0 0 0 13.837 4.46 35.927 35.927 0 0 0 17.405-5.014c1.615-1.012 5.376-6.678 11.379-15.862 6.412-9.836 16.128-24.686 18.779-24.686l.482.338.458-.458c1.181-1.615 3.544-4.146 4.773-4.146.121 0 .362 0 .6.506 1.687 3.833.121 15.453-3.929 28.928-4.99 16.682-14.561 38.137-25.144 43.682a64.539 64.539 0 0 1-29.194 7.425z" transform="translate(-41.712 -13.142)" style="fill:#fff"/>
                    <path data-name="Path 30708" d="M165.593 47.322a.711.711 0 0 1 .072.145c1.615 3.64 0 15.356-3.954 28.495-4.942 16.562-14.416 37.848-24.854 43.32a63.994 63.994 0 0 1-28.929 7.353 37.358 37.358 0 0 1-11.812-1.712 17.033 17.033 0 0 1-3.761-1.784 69.848 69.848 0 0 0-6.147-3.423c-3.688-1.88-6.895-3.5-8.389-6.268a38.618 38.618 0 0 1-3.375-8.052l-.048-.169-.1-.169c-7.4-12.029-18.321-32.569-16.1-36.522.072-.145.217-.362.82-.362h.217c5.882.482 19.768 9.137 38.089 23.745.434.338.7.554.8.627a23.211 23.211 0 0 0 14.2 4.58 36.289 36.289 0 0 0 17.719-5.111c1.736-1.085 5.328-6.533 11.571-16.055 5.81-8.9 15.5-23.721 18.177-24.4l.82.6.7-.964c1.519-2.049 3.5-3.857 4.243-3.905zm.024-1.205c-2 0-5.255 4.388-5.255 4.388a.742.742 0 0 0-.458-.145c-4.99 0-26.566 38.21-30.471 40.669a35.366 35.366 0 0 1-17.092 4.918 22.057 22.057 0 0 1-13.476-4.339c-1.181-.868-29.049-23.77-39.512-24.613h-.313c-9.595 0 14.247 38.716 14.247 38.716a39.751 39.751 0 0 0 3.5 8.341c2.507 4.629 8.775 6.147 14.946 10.125a19.512 19.512 0 0 0 4.026 1.9 38.07 38.07 0 0 0 12.2 1.784 64.5 64.5 0 0 0 29.483-7.5c10.39-5.472 20.009-25.915 25.433-44.044 3.978-13.259 5.713-25.264 3.905-29.338a1.213 1.213 0 0 0-1.133-.844z"/>
                </g>
                <path data-name="Path 30709" d="M107.716 93.692c3.905 7.329 7.618 13.331 7.618 13.331s-5.279 8.2-2.748 12.873c1.254 2.29 3.954 4.074 7.3 5.641 4.629 2.218 10.487 4.122 15.332 6.7 13.042-12.029 13.645-30.712 7.979-42.067-13.621-9.329-31.532-21.045-41.826-21.865-6.316-.506.241 13.982 6.316 25.361z" transform="translate(-42.046 -1.314)" style="fill:#24555b;stroke:#000;stroke-miterlimit:10;stroke-width:.6px"/>
                <g data-name="Group 16070">
                    <path data-name="Path 30710" d="M64.344 42.404c0 2.893.844 5.231 1.856 5.231s1.856-2.338 1.856-5.231-.844-5.231-1.856-5.231-1.856 2.338-1.856 5.231z"/>
                    <path data-name="Rectangle 2178" d="M66.224 37.173h1.615v10.462h-1.615z"/>
                    <path data-name="Path 30711" d="M102.63 61.161c0 2.893.844 5.231 1.856 5.231s1.856-2.338 1.856-5.231-.844-5.231-1.856-5.231-1.856 2.338-1.856 5.231z" transform="translate(-36.647 -18.757)" style="fill:#be7812"/>
                    <path data-name="Path 30712" d="M95.9 36.349h-.121l-27.41 1.977c-.964.121-1.736 1.953-1.736 4.219s.82 4.219 1.832 4.219h.024l27.41 2.531c1.278 0 2.314-2.893 2.314-6.485s-1.037-6.485-2.314-6.485z"/>
                    <path data-name="Rectangle 2179" d="M185.627 30.447h1.953v26.301h-1.953z"/>
                    <path data-name="Path 30713" d="M185.627 43.585z"/>
                    <path data-name="Rectangle 2180" d="M141.294 32.424h1.615v21.793h-1.615z"/>
                    <g data-name="Group 16068">
                        <g data-name="Group 16067">
                            <path data-name="Path 30714" d="M93.996 42.843c0 4.171 1.205 7.546 2.7 7.546s2.7-3.375 2.7-7.546-1.205-7.546-2.7-7.546-2.7 3.371-2.7 7.546z"/>
                            <path data-name="Rectangle 2181" d="M96.696 35.293h2.338v15.115h-2.338z"/>
                        </g>
                        <path data-name="Path 30715" d="M115.22 62.7c0 4.171 1.205 7.546 2.7 7.546s2.7-3.375 2.7-7.546-1.205-7.546-2.7-7.546-2.7 3.371-2.7 7.546z" transform="translate(-18.886 -19.857)" style="fill:#be7812"/>
                    </g>
                    <path data-name="Path 30716" d="M139.558 34.111a.543.543 0 0 0-.169.024L99.661 37.1c-.988 0-1.808 2.676-1.808 6s.8 6 1.808 6l39.9 3.737c1.832 0 3.327-4.195 3.327-9.354s-1.495-9.354-3.327-9.354z"/>
                    <path data-name="Path 30717" d="M137.413 43.296c0 6.027 1.736 10.9 3.881 10.9s3.881-4.87 3.881-10.9-1.736-10.9-3.881-10.9-3.881 4.874-3.881 10.9z"/>
                    <path data-name="Path 30718" d="M132.92 64.846c0 6.027 1.736 10.9 3.881 10.9s3.881-4.87 3.881-10.9-1.736-10.9-3.881-10.9-3.881 4.874-3.881 10.9z" transform="translate(6.084 -21.55)" style="fill:#be7812"/>
                    <path data-name="Path 30719" d="m184.759 32.713-41.27 1.52h-.048c-1.784 0-3.23 4.074-3.23 9.088s1.446 9.088 3.23 9.088l41.3 2.1c2.146 0 3.881-4.87 3.881-10.9s-1.736-10.9-3.881-10.9z"/>
                    <path data-name="Path 30720" d="M180.95 43.585c0 7.256 2.1 13.162 4.677 13.162s4.7-5.882 4.7-13.162-2.097-13.162-4.697-13.162-4.677 5.882-4.677 13.162z"/>
                    <path data-name="Path 30721" d="M151.12 66.292c0 7.256 2.1 13.162 4.7 13.162s4.7-5.882 4.7-13.162-2.1-13.162-4.7-13.162-4.7 5.882-4.7 13.162z" transform="translate(31.759 -22.707)" style="fill:#be7812"/>
                    <g data-name="Group 16069">
                        <path data-name="Path 30722" d="M154.622 72.08c-1.109 0-2.652-3.23-2.652-8.51s1.543-8.51 2.652-8.51 2.652 3.23 2.652 8.51-1.543 8.51-2.652 8.51z" transform="translate(32.958 -19.984)" style="fill:#fff"/>
                        <path data-name="Path 30723" d="M187.579 35.702c.6.1 2.049 2.893 2.049 7.907s-1.422 7.811-2.049 7.907c-.6-.1-2.049-2.893-2.049-7.907s1.422-7.811 2.049-7.907zm0-1.205c-1.784 0-3.254 4.074-3.254 9.112s1.446 9.112 3.254 9.112 3.254-4.074 3.254-9.112-1.446-9.112-3.254-9.112z"/>
                    </g>
                </g>
                <g data-name="Group 16071">
                    <path data-name="Path 30724" d="M140.959 60.011a1.645 1.645 0 0 1-.289-.024c-.121 0-.217-.193-.265-.265a6.112 6.112 0 0 1 .169-4.315 2.711 2.711 0 0 1 2.7-2.387 2.455 2.455 0 0 1 2.073.964l.386.458.458-.386a3.381 3.381 0 0 1 1.977-.771 1.727 1.727 0 0 1 1.326.554l.145.217.193.337h.434c.169 0 .337-.024.506-.024a3.187 3.187 0 0 1 .651.048 2.557 2.557 0 0 1 .627.241l.121.048h.265q2.555.554 2.242 2.314a2.779 2.779 0 0 1-2.362 2.411 1.786 1.786 0 0 1-1.374-.723l-.506-.579-.434.627a6.258 6.258 0 0 1-.627.82 1.169 1.169 0 0 1-.771.337 1.2 1.2 0 0 1-1.061-.771l-.482-1.4-.7.916a1.077 1.077 0 0 1-.868.482 1.169 1.169 0 0 1-.747-.289 3.263 3.263 0 0 1-1.157-1.832l-.386-1.543-.8 1.567-.048.338a3.143 3.143 0 0 1-.6 2.242 1.03 1.03 0 0 1-.8.362z" transform="translate(16.198 -22.862)" style="fill:#fff"/>
                    <path data-name="Path 30725" d="M159.615 30.76a1.859 1.859 0 0 1 1.495.747l.771.94.916-.771.072-.072h.024a2.5 2.5 0 0 1 1.495-.554 1.181 1.181 0 0 1 .868.337 1.474 1.474 0 0 1 .121.193l.41.675.8-.1c.145 0 .289-.024.434-.024a1.978 1.978 0 0 1 .53.048 2.03 2.03 0 0 1 .53.217l.169.072h.169a.7.7 0 0 0 .193.048h.072c.723.169 1.495.313 1.784.434a4.989 4.989 0 0 1-.145 1.133c-.193 1.012-1.012 1.929-1.76 1.929a1.236 1.236 0 0 1-.916-.506l-1.012-1.133-.868 1.254-.145.193a2.608 2.608 0 0 1-.434.554.5.5 0 0 1-.362.169.66.66 0 0 1-.506-.386 3.129 3.129 0 0 0-.121-.338l-.8-2.29-1.35 2a.486.486 0 0 1-.362.217.579.579 0 0 1-.362-.145 2.84 2.84 0 0 1-.964-1.495l-.747-2.821-1.471 2.555a1.551 1.551 0 0 0-.193.844 2.536 2.536 0 0 1-.434 1.784.386.386 0 0 1-.337.169h-.025a5.654 5.654 0 0 1 .217-3.785v-.072l.048-.072a2.067 2.067 0 0 1 2.121-1.856h.121zm0-1.205h-.169a3.307 3.307 0 0 0-3.23 2.772c-.844 2.194-.651 5.159.554 5.4a2.377 2.377 0 0 0 .41.048c1.495 0 2.121-1.856 2-3.254a.511.511 0 0 1 .072-.169 3.992 3.992 0 0 0 1.374 2.146 1.761 1.761 0 0 0 1.109.41 1.615 1.615 0 0 0 1.374-.747c.048.145.1.265.145.386a1.707 1.707 0 0 0 2.821.627 6.149 6.149 0 0 0 .7-.916 2.413 2.413 0 0 0 1.832.916 3.366 3.366 0 0 0 2.941-2.917c.458-2.387.072-2.435-2.748-2.989h-.169a3.208 3.208 0 0 0-.844-.313 4.12 4.12 0 0 0-.747-.072 2.544 2.544 0 0 0-.6.048 1.842 1.842 0 0 0-.265-.386 2.3 2.3 0 0 0-1.76-.747 4 4 0 0 0-2.194.747c-.072.048-.121.121-.193.169a3.05 3.05 0 0 0-2.411-1.181z"/>
                </g>
            </g>
            <path data-name="Path 30726" d="M60.028 92.957s7.329-21.046 10.848-12.2c3.52 8.9 6.22 36.281 3.833 45.948-1.9 7.69-2.387 9.112-2.459 9.137l-5.472-8.124s-5.858-9.016-4.966-11.162c.916-2.146-1.784-23.577-1.784-23.577z"/>
            <g data-name="Group 16073">
                <path data-name="Path 30727" d="M132.827 178.915a3.607 3.607 0 0 1-1.229-.121c-.892-.651-1.784-7.931-1.808-11.137a40.148 40.148 0 0 1 11.282-2.507c.82 0 1.012.121 1.012.145.916.844 1.712 7.618 1.856 10.848-.024.964-6.7 2.8-11.137 2.8z" transform="translate(1.668 135.321)" style="fill:#fff"/>
                <path data-name="Path 30728" d="M142.764 301.054a2.008 2.008 0 0 1 .651.048c.7 1.109 1.446 6.726 1.615 10.149-1.012.988-7.087 2.387-10.535 2.387a5.163 5.163 0 0 1-.868-.048c-.747-1.205-1.471-7.28-1.543-10.246a42.674 42.674 0 0 1 10.679-2.29zm0-1.205c-3.52 0-11.885 2.242-11.885 2.869-.024 2.29.723 10.945 2.049 11.885a3.186 3.186 0 0 0 1.567.241c3.616 0 11.812-1.615 11.74-3.447-.1-1.9-.771-10.077-2.073-11.258a2.4 2.4 0 0 0-1.422-.289z"/>
            </g>
            <path data-name="Path 30729" d="M131.674 312.115s-4.363 8.9.627 14.585c0 0 29.435-3.158 38.041-5.906 0 0-1.446-10.8-9.137-10.559a114.922 114.922 0 0 0-15.236 1.687s-7.858 5.303-14.295.193z"/>
            <path data-name="Path 30730" d="M33.441 200.306c8.124 14.247 34.859 18.9 54.747 23.119 11.909 2.531 21.359 4.918 22.829 9.137 5.713 16.489 11.33 60.34 16.73 75.528 1.76 1.832 5.231 1.688 8.823.844a58.676 58.676 0 0 0 11.909-4.58c-2.748-34.256-1.495-66.391-8.172-89.919-11.186-39.536-72.635-54.82-72.635-54.82-11.187-11.091-48.456 15.716-34.231 40.715z"/>
            <g data-name="Group 16074">
                <path data-name="Path 30731" d="M113.185 182.561c-3.954 0-9.812-1.567-10.342-2.218-.6-.892 1.109-8.124 2.218-11.065.121 0 .386-.048.8-.048 3.664 0 10.969 1.229 11.571 2.121.554 1.085-1.012 7.618-2.049 10.8-.024.1-.506.41-2.17.41z" transform="translate(-36.523 141.077)" style="fill:#fff"/>
                <path data-name="Path 30732" d="M69.334 310.909c3.5 0 9.908 1.085 11.041 1.856.265 1.3-.988 6.8-2.025 10.077a4.93 4.93 0 0 1-1.663.193c-3.52 0-8.775-1.326-9.836-1.977-.289-1.4 1.157-7.329 2.121-10.149h.362zm0-1.205c-.747 0-1.229.072-1.278.193-.82 2.146-3.134 10.511-2.218 11.861.627.94 7.039 2.483 10.848 2.483 1.471 0 2.555-.241 2.748-.82.579-1.808 2.8-9.715 2-11.282-.675-1.326-8.9-2.435-12.1-2.435z"/>
            </g>
            <path data-name="Path 30733" d="M52.435 191.603c6.581 6.2 14.3 11.113 21.021 17.14a192.04 192.04 0 0 1 14.705 14.68c11.909 2.531 21.359 4.918 22.829 9.137 5.713 16.489 11.33 60.34 16.73 75.528 1.76 1.832 5.231 1.687 8.823.844a51.134 51.134 0 0 0 .313-8.1 98.306 98.306 0 0 0-3.23-23.7c-3.881-15.453-9.474-31.725-16.779-45.9-4.1-7.931-8.028-14.8-10.27-23.553-1.446-5.689-3.158-11.306-6.967-15.935-9.667-11.6-25.891-14.175-38.234-21.817a3.755 3.755 0 0 0-.362-.145 1.144 1.144 0 0 0-1.543-.988c-11.475 3.833-16.634 13.693-7.039 22.781z"/>
            <path data-name="Path 30734" d="M65.089 319.949s-6.292 7.642-2.748 14.32c0 0 29.387 3.712 38.378 3.013 0 0 1.085-10.848-6.461-12.367a113.865 113.865 0 0 0-15.212-1.856s-8.869 3.351-13.957-3.11z"/>
            <path data-name="Path 30735" d="M-3.687 201.005c13.018 22.805 58.821 13.789 62.727 25.023 5.737 16.489 12.005 76.9 6.171 86.954a14.35 14.35 0 0 0 2.025 1.663c5.424 3.568 14.681 5.038 14.681 5.038 9.45-23.866 17.767-69.911 18.032-96.38.41-41.054-69.5-63.04-69.5-63.04-9.161-9.04-35.654 7.232-37.294 27.072a23.246 23.246 0 0 0 3.131 13.694z"/>
            <path data-name="Path 30736" d="M-3.687 201.006c13.018 22.805 58.821 13.789 62.727 25.023 5.737 16.489 12.005 76.9 6.171 86.954a14.352 14.352 0 0 0 2.025 1.663 72.787 72.787 0 0 0 8.823-39.295c-.41-7.642-1.519-15.236-2.435-22.805-.94-7.69-1.326-15.766-3.254-23.312-3.206-12.8-12.921-15.79-24.854-17.5-16.827-2.411-37.294-5.979-44.5-23.577a1.4 1.4 0 0 0-.723-2.531 13.119 13.119 0 0 0-7.136 1.712 23.246 23.246 0 0 0 3.129 13.691z"/>
            <g data-name="Group 16075">
                <path data-name="Path 30737" d="M80.318 193.128a17.688 17.688 0 0 1-3.351-.241c-4.243-.8-5.038-1.808-5.159-2.1-.6-1.278.145-9.209.964-17.574 1.085-11.379 2.435-25.529 2.1-36.787-.121-4.725-.193-8.534-.193-11.957-.121-24.493 1.977-40.187 5.786-43.128.94-.747 2.1-1.567 3.616-2.6a67.412 67.412 0 0 1 7.015-4.195 66.414 66.414 0 0 1 14.44-5.569A60.309 60.309 0 0 1 120.818 67a59.682 59.682 0 0 1 13.018 1.446v.121h.627a61.508 61.508 0 0 1 7.811 2.387c.482.169.94.337 1.4.506l.554.217c9.137 3.688 7.16 26.18 5.954 39.608l-.217 2.459c-.6 6.895-1.133 12.849-.868 16.827a42.964 42.964 0 0 0 .554 4.484c1.133 6.7 3.688 13.283 5.954 19.093 1.88 4.846 3.664 9.4 4.387 13.4-1.422 1.639-18.587 11.427-28.326 15.091-15.5 5.834-40.765 10.511-51.324 10.511z" transform="translate(-80.437 -3.14)" style="fill:#fff"/>
                <path data-name="Path 30738" d="M40.357 64.487a60.43 60.43 0 0 1 12.439 1.326v.265h1.085a58.639 58.639 0 0 1 7.762 2.338c.458.145.892.313 1.35.506l.53.193c8.727 3.52 6.774 25.722 5.593 39.005l-.217 2.435c-.6 6.919-1.133 12.9-.868 16.947a36.262 36.262 0 0 0 .579 4.508c1.133 6.774 3.713 13.379 6 19.213 1.808 4.677 3.544 9.088 4.291 12.946-2.483 2.1-18.2 11.137-27.892 14.778-15.453 5.81-40.6 10.487-51.107 10.487a18.986 18.986 0 0 1-3.23-.217c-4.219-.8-4.725-1.736-4.725-1.736-.53-1.229.265-9.378 1.012-17.261 1.085-11.4 2.435-25.578 2.1-36.86-.121-4.7-.193-8.486-.193-11.933-.193-34.5 3.809-41.3 5.545-42.645.916-.723 2.049-1.543 3.592-2.579a67.851 67.851 0 0 1 6.943-4.171 63.938 63.938 0 0 1 14.3-5.521 60.146 60.146 0 0 1 15.139-1.977zm0-1.205a61.435 61.435 0 0 0-15.453 2 66.67 66.67 0 0 0-14.56 5.617 67.411 67.411 0 0 0-7.063 4.243 53.71 53.71 0 0 0-3.64 2.628c-4.677 3.592-6.123 22.95-6 43.586 0 3.954.072 7.979.193 11.957.6 20.539-4.46 51.42-2.989 54.6.482 1.012 2.483 1.832 5.593 2.411a19.18 19.18 0 0 0 3.447.241c10.848 0 35.968-4.7 51.541-10.559 10.149-3.809 28.326-14.247 28.76-15.549-1.519-8.944-8.317-20.443-10.39-32.713a38.281 38.281 0 0 1-.554-4.388c-.289-4.387.41-11.451 1.085-19.189 1.471-16.682 2.8-36.546-6.34-40.235-.675-.241-1.3-.506-1.953-.723a56.859 56.859 0 0 0-8.028-2.387.024.024 0 0 1-.024-.024 60.924 60.924 0 0 0-13.621-1.567z"/>
            </g>
            <path data-name="Path 30739" d="M164.849 168.427c-.41 1.3-24.348 12.536-37.92 18.1-17.405 7.136-42.091 8.727-49.709 7.28-3.11-.579-5.111-1.422-5.593-2.411-1.471-3.182 3.616-34.063 2.989-54.6a396.621 396.621 0 0 1-.193-11.957c-.121-20.66 1.326-39.994 6-43.586 1.061-.844 2.29-1.687 3.64-2.628a67.412 67.412 0 0 1 7.063-4.243 66.67 66.67 0 0 1 14.561-5.617 60.394 60.394 0 0 1 29.049-.434.024.024 0 0 0 .024.024 61.313 61.313 0 0 1 8.028 2.387c.651.217 1.278.482 1.953.723 9.137 3.664 7.835 23.553 6.34 40.235-.675 7.738 15.766 55.832 13.741 56.748z" transform="translate(-80.762 -3.463)" style="fill:#24555b;stroke:#000;stroke-miterlimit:10;stroke-width:.6px"/>
            <g data-name="Group 16076">
                <path data-name="Path 30740" d="M99.426 78.127c-3.761 0-8.462-3.3-9.546-4.1V61.59L100 65.785v8.679l.072.145c.506.94 1.085 2.531.8 3.158a.457.457 0 0 1-.386.265 5.109 5.109 0 0 1-1.061.1z" transform="translate(-54.633 -10.772)" style="fill:#fff"/>
                <path data-name="Path 30741" d="m35.849 51.71 8.92 3.688v8.438l.145.265a5.742 5.742 0 0 1 .8 2.531 5.43 5.43 0 0 1-.916.072c-3.351 0-7.57-2.821-8.944-3.809V51.686zm-1.205-1.808v13.645s5.641 4.387 10.149 4.387a4.8 4.8 0 0 0 1.181-.121c2.121-.41 0-4.291 0-4.291v-8.92l-11.33-4.7z"/>
            </g>
            <g data-name="Group 16077">
                <path data-name="Path 30742" d="M101.591 77.593A11.033 11.033 0 0 1 94 74.315c-7.136-6.726-6.22-16.73-5.93-18.948l17.791-1.446c.8 1.712 4.1 9.016 4.99 15.79a5.8 5.8 0 0 1-1.687 4.436 10.234 10.234 0 0 1-7.594 3.423z" transform="translate(-57.473 -21.592)" style="fill:#fff"/>
                <path data-name="Path 30743" d="M48.023 32.979c1.012 2.194 3.929 8.968 4.749 15.236a5.12 5.12 0 0 1-1.543 3.954 9.556 9.556 0 0 1-7.136 3.206 10.559 10.559 0 0 1-7.184-3.11c-6.485-6.123-6.1-15.115-5.81-17.96l16.875-1.35zm.723-1.278-18.685 1.495s-2.314 12.054 6.027 19.961a11.56 11.56 0 0 0 8 3.447c5.689 0 10.366-4.7 9.86-8.534-1.037-7.883-5.207-16.345-5.207-16.345z"/>
            </g>
            <path data-name="Path 30744" d="M28.641 129.431c9.329-13.476 6-38.571-9.281-51.011-4.315-3.5-8.124-4.291-8.8-4.026.554.217-13.5 6.051-13.741 6.943-2.821 10.294-1.687 9.619-2.917 24.348-.362 4.339-.265 10.728-.265 15.67 0 3.954.072 7.979.193 11.957.6 20.539-4.46 51.42-2.989 54.6.482 1.012 2.483 1.832 5.593 2.411 2.748-8.462 6.412-30.3 7.521-38.812 1.567-11.885 18.3-12.946 24.662-22.106z"/>
            <path data-name="Path 30745" d="M47.541 20.973a13.213 13.213 0 0 0-3.809 2.049 18.68 18.68 0 0 1-6.726 2.266c-3.062.627-5.954 1.422-7.883 4.05-3.037 4.171-2.628 12.68.579 17.261a2.908 2.908 0 0 0 1.953 2.194 3.407 3.407 0 0 0 4.363-2.194c.964-2.7-.506-5.979-.916-8.679-.1-.6-.121-1.4-.265-2.146 7.28-.1 17-.651 20.756-6.581 3.857-6.075-2.266-9.715-8-8.221z"/>
            <g data-name="Group 16079">
                <g data-name="Group 16078">
                    <path data-name="Path 30746" d="M144.424 155.872c-15.091 0-30.737-5.328-39.849-13.572a1.775 1.775 0 0 0-.265-.241c-15.187-13.669-19.551-19.117-27.964-30.182a10.042 10.042 0 0 1-1.591-9.04 9.465 9.465 0 0 1 6.171-6.316 33.66 33.66 0 0 1 10.583-1.712 35.69 35.69 0 0 1 7.425.8 33.255 33.255 0 0 1 18.755 11.74c1.615 2 4.1 4.99 6.822 8.028 4.87 5.4 18.972 13.138 22.9 13.138a1.408 1.408 0 0 0 1.254-.53c.1-.169.169-.289.217-.386a11.608 11.608 0 0 0 1.133-3.423c.169-.217 23-40.331 28.229-49.9l.145-.289-.145-.289a12.793 12.793 0 0 1-.8-1.832l-.145-.386h-.1c-2.073-3.688-3.086-6.2-2.989-7.473.048-.723.386-1.181.506-1.181.048 0 .193.048.41.289a7.041 7.041 0 0 1 1.736 2.531l.1.482h.94l.145-.482c1.205-4 3.568-9.088 6.171-10.245a3.047 3.047 0 0 1 1.205-.313c.145 0 .386 0 .434.169.1.217 0 .82-.723 1.591-.024.048-3.52 3.881-2.989 5.062l.169.362.482.048c.289 0 .82 0 3.423-3.254.82-1.013 2.579-2.314 3.327-2.314a.629.629 0 0 1 .362.482c.1 1.133-1.688 3.206-2.869 4.58-.362.41-.675.8-.94 1.109l-.1.121v.145a1.118 1.118 0 0 0 .145.988.91.91 0 0 0 .7.313c.651 0 1.495-.554 2.845-1.446a9.333 9.333 0 0 1 1.808-1.061 5.184 5.184 0 0 1 .554-.048c.41 0 .482.1.482.1.241.338-.6 1.736-2.507 4.171-1.229 1.567-1.567 2.049-1.4 2.555a1.156 1.156 0 0 0 1.133.82 4.787 4.787 0 0 0 2.242-1.012 5.6 5.6 0 0 1 1.615-.82 1.274 1.274 0 0 1 .1.506c.048 1.278-2.338 3.279-4.074 4.725a14.4 14.4 0 0 0-2.869 2.8 6.436 6.436 0 0 0-.651 1.639 5.586 5.586 0 0 1-.313.892c-1.35 6.726-12.849 62.148-13.066 63.064-2.338 9.112-12.921 14.537-28.3 14.537z" transform="translate(-76.608 -19.956)" style="fill:#fff"/>
                    <path data-name="Path 30747" d="M108.58 35.726a3.078 3.078 0 0 1-.506.723c-1.133 1.254-3.713 4.315-3.11 5.713l.41.771h.8c.506 0 1.109 0 3.881-3.471a7.644 7.644 0 0 1 2.628-2.025c-.024.868-2.049 3.206-2.748 4-.362.41-.7.82-.964 1.133l-.193.241-.048.289a1.739 1.739 0 0 0 .313 1.495 1.5 1.5 0 0 0 1.157.53c.82 0 1.736-.579 3.182-1.543a16.074 16.074 0 0 1 1.543-.964.743.743 0 0 0 .241-.024 20.842 20.842 0 0 1-2.271 3.283c-1.3 1.663-1.784 2.29-1.495 3.11a1.749 1.749 0 0 0 1.687 1.229 5.039 5.039 0 0 0 2.555-1.109c.193-.121.458-.289.7-.434-.41 1.061-2.483 2.8-3.785 3.881a14.608 14.608 0 0 0-3.013 2.965 7.592 7.592 0 0 0-.7 1.76 7.649 7.649 0 0 1-.265.8l-.072.145v.145c-1.374 6.8-12.753 61.714-13.042 62.871-2.266 8.823-12.656 14.1-27.723 14.1s-30.423-5.255-39.487-13.452a1.561 1.561 0 0 0-.217-.193C12.875 108.05 8.511 102.602.122 91.585a9.5 9.5 0 0 1-1.495-8.51 8.951 8.951 0 0 1 5.786-5.93 33.264 33.264 0 0 1 10.415-1.668 36.172 36.172 0 0 1 7.3.771 32.6 32.6 0 0 1 18.394 11.547c1.639 2 4.146 5.038 6.846 8.052 5.067 5.619 19.237 13.33 23.337 13.33a1.986 1.986 0 0 0 1.687-.7c.121-.145.169-.289.193-.289a1.6 1.6 0 0 0 .145-.289 11.577 11.577 0 0 0 1.133-3.351c1.642-2.865 23.142-40.664 28.208-49.922l.313-.554-.289-.579a16.824 16.824 0 0 1-.771-1.76l-.289-.771h-.145c-2.483-4.436-2.772-6.171-2.724-6.8a1.424 1.424 0 0 1 .048-.338 5.729 5.729 0 0 1 1.4 2.049l.217.94h.964l.916-.048.265-.844c1.278-4.195 3.568-8.871 5.834-9.86a2.752 2.752 0 0 1 .723-.241zm.241-1.229a3.936 3.936 0 0 0-1.446.362c-3.954 1.736-6.509 10.679-6.509 10.679a7.936 7.936 0 0 0-1.88-2.821 1.237 1.237 0 0 0-.844-.482c-.651 0-1.037.916-1.109 1.76-.145 2.1 2.242 6.364 3.23 8.124a15.372 15.372 0 0 0 .82 1.88c-5.3 9.691-28.3 50.07-28.3 50.07a10.515 10.515 0 0 1-1.109 3.3c0 .048-.072.145-.1.193s-.024.1-.072.121a.9.9 0 0 1-.747.265c-3.544 0-17.526-7.449-22.444-12.921-2.435-2.7-4.821-5.545-6.822-8a33.757 33.757 0 0 0-19.092-11.958 36.88 36.88 0 0 0-7.546-.8 34.439 34.439 0 0 0-10.776 1.736 10.473 10.473 0 0 0-4.87 16.3c8.317 10.921 12.729 16.489 28.109 30.327.1.048.145.145.217.217 9.763 8.823 25.939 13.717 40.235 13.717s26.253-4.7 28.9-14.995c.145-.6 11.6-55.736 13.018-62.944a23.062 23.062 0 0 1 .916-2.459c1.085-1.856 7.087-5.328 7.015-7.859-.024-.82-.289-1.109-.7-1.109-1.012 0-2.869 1.832-3.857 1.832a.535.535 0 0 1-.554-.434c-.241-.675 6.533-7.208 2.845-7.208a2.965 2.965 0 0 0-.627.048c-.868.121-3.64 2.483-4.556 2.483-.241 0-.362-.169-.289-.6 1.446-1.832 5.3-5.521 3.471-6.991a.765.765 0 0 0-.482-.145c-1.085 0-3.013 1.543-3.809 2.531-1.76 2.194-2.676 3.013-2.941 3.013-.458 0 .771-2.194 2.821-4.46 1.326-1.471 1.157-2.772-.145-2.772z"/>
                </g>
                <path data-name="Path 30748" d="M130.687 92.517c-2.242-2.483-16.658-18.225-31.412-21.045-6.726-1.278-23.07.265-25.288 8.606-3.568 13.355 15.38 31.99 29.724 44.863 13.042-5.279 22.42-17.454 27-32.448z" transform="translate(-77.673 2.609)" style="fill:#24555b;stroke:#000;stroke-miterlimit:10;stroke-width:.6px"/>
            </g>
        </g>
    </g>
</svg>
