<svg xmlns="http://www.w3.org/2000/svg" width="55.856" height="55.832" viewBox="0 0 55.856 55.832">
    <path data-name="Path 30751" d="m205.063 61.762-4.1 7.955 4.8 3.013a22.165 22.165 0 0 0-.651 7.835l-5.231 2.17 2.724 8.534 5.521-1.254a22.678 22.678 0 0 0 5.063 6l-2.146 5.231 7.955 4.1 3.013-4.8a22.689 22.689 0 0 0 7.835.651l2.194 5.231 8.534-2.724-1.254-5.521a22.679 22.679 0 0 0 6-5.062l5.231 2.146 4.1-7.955-4.8-3.013a22.69 22.69 0 0 0 .651-7.835l5.231-2.194-2.724-8.51-5.521 1.254a22.677 22.677 0 0 0-5.062-6l2.146-5.231-7.955-4.1-3.013 4.8a22.738 22.738 0 0 0-7.835-.651l-2.192-5.232-8.51 2.724 1.254 5.521a22.678 22.678 0 0 0-6 5.062l-5.231-2.146zm30.137 2.386a16.162 16.162 0 1 1-21.769 6.967 16.181 16.181 0 0 1 21.769-6.967z" transform="translate(-199.88 -50.6)" style="fill:#ee6c5f"/>
</svg>
