<svg xmlns="http://www.w3.org/2000/svg" width="95.802" height="95.85" viewBox="0 0 95.802 95.85">
    <path data-name="Path 30750" d="m165.555 51.877-2.965 14.9 9.233 2.676a38.444 38.444 0 0 0 2.6 13.066l-7.521 6 8.437 12.632 8.437-4.629a38.32 38.32 0 0 0 11.089 7.4l-1.061 9.571 14.9 2.965 2.676-9.233a38.561 38.561 0 0 0 13.066-2.6l6 7.5 12.632-8.437-4.629-8.437a38.321 38.321 0 0 0 7.4-11.089l9.57 1.061 2.965-14.9-9.233-2.676a38.561 38.561 0 0 0-2.6-13.066l7.5-6.027-8.437-12.632-8.437 4.629a38.648 38.648 0 0 0-11.089-7.4l1.061-9.571-14.9-2.965-2.676 9.233a38.445 38.445 0 0 0-13.066 2.6l-6.027-7.5-12.63 8.439 4.629 8.437a38.649 38.649 0 0 0-7.4 11.089l-9.57-1.061zm50.311-10.221a27.431 27.431 0 1 1-32.255 21.552 27.415 27.415 0 0 1 32.255-21.552z" transform="translate(-162.59 -20.61)" style="fill:#24555b"/>
</svg>
