<svg width="20" height="20" viewBox="0 0 20 20" fill="none" xmlns="http://www.w3.org/2000/svg">
<path fill-rule="evenodd" clip-rule="evenodd" d="M12.7658 14.1467H16.6309L14.4713 10.5279C14.424 10.4489 14.4106 10.3537 14.4337 10.2644C14.4571 10.175 14.5152 10.0988 14.5951 10.0526L16.3887 9.01745C16.552 8.92318 16.7607 8.9774 16.8573 9.13929L19.9502 14.3149C20.0186 14.429 20.0148 14.5726 19.941 14.6834L18.5608 16.7536C18.497 16.8496 18.3894 16.9072 18.2737 16.9072H12.7656V18.9774C12.7656 19.1168 12.6814 19.2428 12.5528 19.2963C12.4237 19.3497 12.2753 19.3202 12.1766 19.2214L8.7262 15.771C8.59127 15.6364 8.59127 15.4176 8.7262 15.2832L12.1766 11.8328C12.2753 11.734 12.4237 11.7045 12.5528 11.7579C12.6815 11.8114 12.7656 11.9374 12.7656 12.0768L12.7658 14.1467ZM19.0459 14.1467L16.4395 9.78461L15.2436 10.475L17.4345 14.1466L19.0459 14.1467Z" fill="#72BF44"/>
<path fill-rule="evenodd" clip-rule="evenodd" d="M11.8562 6.05502L10.003 3.00418L7.94726 6.38973C7.8499 6.55023 7.64226 6.60337 7.47977 6.50941L5.68619 5.47429C5.60578 5.42808 5.54756 5.35106 5.5243 5.26111C5.5015 5.17099 5.51567 5.07549 5.56404 4.99616L8.50442 0.165588C8.5668 0.062691 8.67864 0 8.79909 0H11.2068C11.3273 0 11.4391 0.0628487 11.5015 0.165588L14.2466 4.67518L16.0845 3.61418C16.2053 3.5441 16.3564 3.55411 16.4672 3.63898C16.5776 3.72417 16.6263 3.86742 16.5904 4.00235L15.3271 8.71542C15.2782 8.89934 15.0887 9.0087 14.9048 8.95941L10.1909 7.69664C10.0563 7.66044 9.95663 7.54661 9.9383 7.40813C9.91997 7.26981 9.98698 7.1341 10.1077 7.06448L11.8562 6.05502ZM8.79507 1.01545L6.33727 5.05341L7.53246 5.74318L9.59931 2.33973L8.79507 1.01545Z" fill="#72BF44"/>
<path fill-rule="evenodd" clip-rule="evenodd" d="M2.93726 9.48178L1.1723 8.46251C1.05123 8.39289 0.984228 8.25718 1.00256 8.11886C1.02089 7.98053 1.12055 7.8667 1.25548 7.83035L5.96855 6.56758C6.15247 6.51829 6.34193 6.62765 6.39123 6.81157L7.654 11.5246C7.6902 11.6596 7.64153 11.8027 7.53078 11.888C7.42002 11.9729 7.26892 11.9829 7.14815 11.9128L5.32807 10.8621L3.36796 14.1466H7.59087C7.78126 14.1466 7.93591 14.3013 7.93591 14.4917V16.5619C7.93591 16.7523 7.78126 16.9069 7.59087 16.9069H1.72517C1.60995 16.9069 1.50197 16.8493 1.43805 16.7534L0.057885 14.6831C-0.0158986 14.5724 -0.0194398 14.4288 0.0489509 14.3147L2.93726 9.48178ZM0.990241 14.8368H7.24593V16.217H1.90982L0.990241 14.8368Z" fill="#72BF44"/>
</svg>
