<svg width="44" height="42" viewBox="0 0 44 42" fill="none" xmlns="http://www.w3.org/2000/svg">
<path d="M43.4377 16.6229L36.3674 12.5399V4.37698L28.7891 0L21.7188 4.083L14.6486 0L7.07029 4.37698V12.5399L0 16.6229V25.377L7.07029 29.4601V37.6229L14.6486 42L21.7188 37.9169L28.7891 42L36.3674 37.6229V29.4601L43.4377 25.377V16.6229ZM8.60064 29.1629L11.3706 27.5654L14.6486 25.6741L17.9297 27.5654L21.2077 29.4601V36.444L8.60064 29.1629ZM34.8371 12.837L32.0671 14.4345L28.7891 16.329L25.508 14.4345L22.23 12.5399V5.55588L34.8371 12.837ZM21.7188 13.4249L24.9968 15.3163L27.7668 16.9169L15.1598 24.1949V17.2108L18.4377 15.3163L21.7188 13.4249ZM14.1374 17.2108V24.1949L8.08946 20.7028V13.7188L10.8594 15.3163L14.1374 17.2108ZM7.57829 21.5878L13.6294 25.0799L10.8594 26.6773L7.57829 28.5719L1.53034 25.0799L7.57829 21.5878ZM21.7188 28.5719L18.4377 26.6804L15.6677 25.083L28.2748 17.8019V24.7859L24.9968 26.6804L21.7188 28.5719ZM29.2971 24.7859V17.8019L35.3483 21.2939V28.2779L32.5783 26.6804L29.3003 24.7859H29.2971ZM35.8562 20.4089L29.8051 16.9169L32.5751 15.3163L35.8562 13.4249L41.9042 16.9169L35.8562 20.4089ZM35.3451 4.96479V11.9489L22.7348 4.67089L28.7859 1.1789L35.3451 4.96479ZM21.2045 12.5399L17.9265 14.4345L15.1566 16.0319V1.4728L21.2045 4.96479V12.5399ZM8.08626 4.96479L14.1342 1.4728V16.0319L11.3642 14.4345L8.08626 12.5399V4.96479ZM7.0639 13.7188V20.7028L1.01597 24.1949V17.2108L7.0639 13.7188ZM8.08626 37.0319V30.0479L20.6933 37.3258L14.6422 40.8178L8.08307 37.0319H8.08626ZM22.2268 29.4569L25.5048 27.5622L28.2748 25.9648V40.5239L22.2268 37.0319V29.4569ZM35.3451 37.0319L29.2939 40.5239V25.9648L32.0639 27.5622L35.3451 29.4569V37.0319ZM36.3642 28.2779V21.2939L42.4154 17.8019V24.7859L36.3642 28.2779Z" fill="white"/>
</svg>
